<svg xmlns="http://www.w3.org/2000/svg" viewBox="0 0 403 402"><g fill-rule="nonzero" fill="none"><path d="M310.203 124.657c-25.199-36.011-64.905-56.666-108.94-56.666-36.301 0-70.242 14.422-95.57 40.607l-5.83 6.029-51.479-44.154 6.367-6.791c18.615-19.849 40.603-35.478 65.352-46.453C145.742 5.86 173.049.095 201.264.095c33.165 0 65.94 8.141 94.781 23.544 28.782 15.372 53.717 38.007 72.107 65.461l2.37 3.537a4.887 4.887 0 01-1.578 6.928l-50.126 29.546a4.884 4.884 0 01-6.483-1.408l-2.132-3.046z" fill="#CD2900"/><path d="M25.976 299.072C9.218 269.233.359 235.32.359 201c0-45.452 14.868-88.359 42.998-124.081l5.744-7.296 51.487 44.162-5.103 6.685c-17.814 23.339-27.231 51.186-27.231 80.531 0 22.016 5.518 43.843 15.959 63.121l4.005 7.395-57.695 35.653-4.547-8.098z" fill="#FFCE00"/><path d="M201.263 401.904c-66.426 0-128.513-32.892-166.085-87.983l-5.248-7.696 57.705-35.662 4.829 6.853c24.968 35.436 65.641 56.592 108.799 56.592 35.847 0 70.748-14.839 95.753-40.713l5.831-6.034 51.429 44.111-6.354 6.791c-18.618 19.895-40.622 35.561-65.399 46.564-25.668 11.398-53.007 17.177-81.26 17.177z" fill="#40A459"/><path d="M302.125 288.108l5.088-6.684a132.245 132.245 0 0019.224-35.344l-98.586-.002a4.885 4.885 0 01-4.885-4.885v-58.125a4.885 4.885 0 014.885-4.885h173.734l.581 22.928c-.022 45.333-14.844 88.145-42.862 123.806l-5.743 7.309-51.436-44.118z" fill="#1D81CE"/><path d="M310.203 124.657c-25.199-36.011-64.905-56.666-108.94-56.666-36.301 0-70.242 14.422-95.57 40.607l-5.83 6.029-51.479-44.154 6.367-6.791c18.615-19.849 40.603-35.478 65.352-46.453C145.742 5.86 173.049.095 201.264.095c33.165 0 65.94 8.141 94.781 23.544 28.782 15.372 53.717 38.007 72.107 65.461l2.37 3.537a4.887 4.887 0 01-1.578 6.928l-50.126 29.546a4.884 4.884 0 01-6.483-1.408l-2.132-3.046z" fill="#CD2900"/><path d="M25.976 299.072C9.218 269.233.359 235.32.359 201c0-45.452 14.868-88.359 42.998-124.081l5.744-7.296 51.487 44.162-5.103 6.685c-17.814 23.339-27.231 51.186-27.231 80.531 0 22.016 5.518 43.843 15.959 63.121l4.005 7.395-57.695 35.653-4.547-8.098z" fill="#FFCE00"/><path d="M201.263 401.904c-66.426 0-128.513-32.892-166.085-87.983l-5.248-7.696 57.705-35.662 4.829 6.853c24.968 35.436 65.641 56.592 108.799 56.592 35.847 0 70.748-14.839 95.753-40.713l5.831-6.034 51.429 44.111-6.354 6.791c-18.618 19.895-40.622 35.561-65.399 46.564-25.668 11.398-53.007 17.177-81.26 17.177z" fill="#40A459"/><path d="M302.125 288.108l5.088-6.684a132.245 132.245 0 0019.224-35.344l-98.586-.002a4.885 4.885 0 01-4.885-4.885v-58.125a4.885 4.885 0 014.885-4.885h169.542a4.298 4.298 0 014.297 4.191l.475 18.737c-.022 45.333-14.844 88.145-42.862 123.806l-5.743 7.309-51.435-44.118z" fill="#1D81CE"/></g></svg>