<svg width="160" height="28" viewBox="0 0 160 28" fill="none" xmlns="http://www.w3.org/2000/svg">
<path d="M0.52 27H7.132C11.312 27 13.364 24.682 13.364 20.426V6.974C13.364 2.718 11.312 0.399998 7.132 0.399998H0.52V27ZM7.056 4.2C8.386 4.2 9.184 4.884 9.184 6.784V20.616C9.184 22.516 8.386 23.2 7.056 23.2H4.7V4.2H7.056ZM21.3517 4.2H28.5717V0.399998H17.1717V27H28.5717V23.2H21.3517V15.41H27.0897V11.61H21.3517V4.2ZM40.472 17.082V20.882C40.472 22.782 39.636 23.466 38.306 23.466C36.976 23.466 36.14 22.782 36.14 20.882V6.518C36.14 4.618 36.976 3.896 38.306 3.896C39.636 3.896 40.472 4.618 40.472 6.518V9.368H44.424V6.784C44.424 2.528 42.296 0.0959998 38.192 0.0959998C34.088 0.0959998 31.96 2.528 31.96 6.784V20.616C31.96 24.872 34.088 27.304 38.192 27.304C42.296 27.304 44.424 24.872 44.424 20.616V17.082H40.472ZM51.9382 6.518C51.9382 4.618 52.7742 3.896 54.1042 3.896C55.4342 3.896 56.2702 4.618 56.2702 6.518V20.882C56.2702 22.782 55.4342 23.504 54.1042 23.504C52.7742 23.504 51.9382 22.782 51.9382 20.882V6.518ZM47.7582 20.616C47.7582 24.872 50.0002 27.304 54.1042 27.304C58.2082 27.304 60.4502 24.872 60.4502 20.616V6.784C60.4502 2.528 58.2082 0.0959998 54.1042 0.0959998C50.0002 0.0959998 47.7582 2.528 47.7582 6.784V20.616ZM77.3026 27C76.8846 26.012 76.8466 25.062 76.8466 23.77V19.666C76.8466 16.892 76.1626 14.878 74.0726 14.004C75.9346 13.13 76.8086 11.344 76.8086 8.608V6.518C76.8086 2.414 74.9466 0.399998 70.6146 0.399998H64.3066V27H68.4866V16.17H69.9306C71.8306 16.17 72.6666 17.082 72.6666 19.552V23.732C72.6666 25.898 72.8186 26.316 73.0466 27H77.3026ZM70.5006 4.2C71.9826 4.2 72.6286 5.036 72.6286 6.936V9.558C72.6286 11.686 71.6786 12.37 70.1206 12.37H68.4866V4.2H70.5006ZM87.244 6.784C87.244 14.384 95.414 15.41 95.414 20.882C95.414 22.782 94.578 23.466 93.248 23.466C91.918 23.466 91.082 22.782 91.082 20.882V18.982H87.13V20.616C87.13 24.872 89.258 27.304 93.362 27.304C97.466 27.304 99.594 24.872 99.594 20.616C99.594 13.016 91.424 11.99 91.424 6.518C91.424 4.618 92.184 3.896 93.514 3.896C94.844 3.896 95.604 4.618 95.604 6.518V7.62H99.556V6.784C99.556 2.528 97.466 0.0959998 93.4 0.0959998C89.334 0.0959998 87.244 2.528 87.244 6.784ZM101.913 4.2H106.283V27H110.463V4.2H114.833V0.399998H101.913V4.2ZM121.728 27H125.908V18.184L131.19 0.399998H127.2L124.008 12.522L120.816 0.399998H116.446L121.728 18.184V27ZM134.02 27H145.078V23.2H138.2V0.399998H134.02V27ZM152.217 4.2H159.437V0.399998H148.037V27H159.437V23.2H152.217V15.41H157.955V11.61H152.217V4.2Z" fill="white"/>
</svg>
