<svg width="52" height="52" viewBox="0 0 52 52" fill="none" xmlns="http://www.w3.org/2000/svg">
<rect x="0.5" y="0.5" width="51" height="51" rx="3.5" fill="white" stroke="#F35141"/>
<g clip-path="url(#clip0)">
<path d="M34.8952 22.8866V21.887C34.8952 19.4945 34.0485 17.2714 32.5137 15.6218C30.9406 13.9286 28.7775 13 26.4179 13H25.5931C23.2334 13 21.0704 13.9286 19.4973 15.6218C17.9624 17.2714 17.1158 19.4945 17.1158 21.887V22.8866C15.2532 23.0122 13.7729 24.5634 13.7729 26.4588V28.021C13.7729 29.9929 15.3788 31.5987 17.3506 31.5987H19.3662C19.7267 31.5987 20.0217 31.3038 20.0217 30.9433V23.5311C20.0217 23.1706 19.7267 22.8756 19.3662 22.8756H18.4267V21.887C18.4267 17.5664 21.5074 14.3109 25.5876 14.3109H26.4124C30.4981 14.3109 33.5733 17.5664 33.5733 21.887V22.8756H32.6338C32.2733 22.8756 31.9784 23.1706 31.9784 23.5311V30.9378C31.9784 31.2983 32.2733 31.5933 32.6338 31.5933H33.5515C33.2838 35.0126 30.9296 35.8046 29.8372 35.9849C29.5368 35.0618 28.6683 34.3954 27.6469 34.3954H26.0082C24.741 34.3954 23.7086 35.4277 23.7086 36.695C23.7086 37.9622 24.741 39 26.0082 39H27.6523C28.712 39 29.6023 38.279 29.87 37.3067C30.4053 37.2303 31.2519 37.0391 32.0931 36.5475C33.2784 35.8538 34.6822 34.4391 34.8679 31.5878C36.7414 31.4731 38.2271 29.9164 38.2271 28.0155V26.4534C38.2326 24.5634 36.7578 23.0067 34.8952 22.8866ZM18.7217 30.2824H17.3616C16.1107 30.2824 15.0948 29.2664 15.0948 28.0155V26.4534C15.0948 25.2025 16.1107 24.1866 17.3616 24.1866H18.7217V30.2824ZM27.6523 37.6891H26.0082C25.462 37.6891 25.0196 37.2466 25.0196 36.7004C25.0196 36.1542 25.462 35.7118 26.0082 35.7118H27.6523C28.1985 35.7118 28.641 36.1542 28.641 36.7004C28.641 37.2466 28.1985 37.6891 27.6523 37.6891ZM36.9217 28.0155C36.9217 29.2664 35.9057 30.2824 34.6549 30.2824H33.2948V24.1866H34.6549C35.9057 24.1866 36.9217 25.2025 36.9217 26.4534V28.0155Z" fill="#F35141"/>
</g>
<defs>
<clipPath id="clip0">
<rect x="13" y="13" width="26" height="26" fill="white"/>
</clipPath>
</defs>
</svg>
