<svg width="52" height="52" viewBox="0 0 52 52" fill="none" xmlns="http://www.w3.org/2000/svg">
<rect x="0.5" y="0.5" width="51" height="51" rx="3.5" fill="white" stroke="#F35141"/>
<path d="M13 21.9063V33.3781C13 35.1291 14.422 36.5512 16.1731 36.5512H35.8269C37.578 36.5512 39 35.1291 39 33.3781V21.9063C39 20.2402 37.6469 18.8871 35.9808 18.8871H31.7571L31.6563 18.4467C31.2478 16.6798 29.6931 15.4487 27.8784 15.4487H24.1163C22.3069 15.4487 20.7522 16.6798 20.3384 18.4467L20.2376 18.8871H16.0192C14.3531 18.8871 13 20.2455 13 21.9063ZM20.7576 20.1871C21.06 20.1871 21.32 19.9802 21.389 19.683L21.6065 18.7385C21.8824 17.5659 22.9118 16.7487 24.1163 16.7487H27.8784C29.0829 16.7487 30.1122 17.5659 30.3882 18.7385L30.6057 19.683C30.6747 19.9749 30.9347 20.1871 31.2371 20.1871H35.9755C36.9253 20.1871 37.6947 20.9565 37.6947 21.9063V33.3781C37.6947 34.4128 36.8563 35.2512 35.8216 35.2512H16.1731C15.1384 35.2512 14.3 34.4128 14.3 33.3781V21.9063C14.3 20.9565 15.0694 20.1871 16.0192 20.1871H20.7576Z" fill="#F35141"/>
<path d="M17.3988 23.8322C17.8794 23.8322 18.269 23.4426 18.269 22.962C18.269 22.4814 17.8794 22.0918 17.3988 22.0918C16.9182 22.0918 16.5286 22.4814 16.5286 22.962C16.5286 23.4426 16.9182 23.8322 17.3988 23.8322Z" fill="#F35141"/>
<path d="M26 33.2135C29.0086 33.2135 31.46 30.762 31.46 27.7535C31.46 24.7449 29.0086 22.2935 26 22.2935C22.9914 22.2935 20.54 24.7396 20.54 27.7535C20.54 30.7673 22.9914 33.2135 26 33.2135ZM26 23.5935C28.2922 23.5935 30.16 25.4612 30.16 27.7535C30.16 30.0457 28.2922 31.9135 26 31.9135C23.7077 31.9135 21.84 30.0457 21.84 27.7535C21.84 25.4612 23.7077 23.5935 26 23.5935Z" fill="#F35141"/>
</svg>
