<svg width="52" height="52" viewBox="0 0 52 52" fill="none" xmlns="http://www.w3.org/2000/svg">
<rect x="0.5" y="0.5" width="51" height="51" rx="3.5" fill="white" stroke="#F35141"/>
<g clip-path="url(#clip0)">
<path d="M38.9939 21.7398C38.997 21.722 38.9987 21.7047 38.9996 21.6865C39.0004 21.6653 39 21.6449 38.9983 21.6237C38.9965 21.6054 38.9939 21.5881 38.9896 21.5703C38.9848 21.5495 38.9783 21.5296 38.9705 21.5097C38.9666 21.4993 38.9658 21.4884 38.961 21.4785C38.9575 21.4711 38.9515 21.4654 38.9476 21.4581C38.9437 21.4507 38.9419 21.4429 38.9376 21.4355L34.6032 14.5006C34.5833 14.4689 34.5599 14.4403 34.5335 14.4152C34.533 14.4148 34.5326 14.4148 34.5322 14.4143C34.4949 14.3792 34.4507 14.3541 34.4034 14.3342C34.3974 14.3315 34.3935 14.3263 34.387 14.3237C34.3822 14.322 34.377 14.3229 34.3722 14.3216C34.3284 14.3068 34.2834 14.2969 34.2361 14.2969H17.7656C17.7188 14.2969 17.6742 14.3068 17.6313 14.3211C17.6265 14.3224 17.6217 14.3216 17.6174 14.3233C17.6109 14.3255 17.607 14.3307 17.6009 14.3333C17.5558 14.3519 17.5134 14.3762 17.4765 14.4091C17.4744 14.4113 17.4713 14.4126 17.4691 14.4143C17.4423 14.4395 17.4184 14.4685 17.3985 14.5002L13.0642 21.4351C13.0598 21.442 13.0581 21.4503 13.0542 21.4576C13.0503 21.465 13.0442 21.4706 13.0407 21.478C13.036 21.488 13.0351 21.4988 13.0308 21.5092C13.023 21.5292 13.0165 21.5491 13.0117 21.5699C13.0078 21.5877 13.0048 21.6054 13.003 21.6237C13 21.6449 12.9996 21.6657 13.0004 21.6865C13.0013 21.7047 13.003 21.722 13.0061 21.7398C13.0095 21.7606 13.0152 21.781 13.0221 21.8014C13.0277 21.8183 13.0338 21.8347 13.0416 21.8512C13.0455 21.859 13.0468 21.8677 13.0512 21.8755C13.0581 21.888 13.0685 21.8976 13.0763 21.9093C13.0824 21.9184 13.0858 21.9284 13.0932 21.937L25.658 37.5346C25.6589 37.5359 25.6598 37.5368 25.6606 37.5376L25.6628 37.5407C25.6641 37.5424 25.6663 37.5428 25.6676 37.5446C25.7031 37.5875 25.7473 37.62 25.7954 37.646C25.8084 37.6529 25.8206 37.659 25.834 37.6646C25.8864 37.6867 25.9419 37.7023 26 37.7023C26.0494 37.7023 26.0993 37.6937 26.1487 37.6759C26.156 37.6733 26.1608 37.6672 26.1682 37.6642C26.1903 37.6551 26.2076 37.6404 26.2276 37.6278C26.2605 37.607 26.2913 37.5853 26.3168 37.5571C26.3229 37.5506 26.332 37.5476 26.3377 37.5407L38.9072 21.937C38.9142 21.9284 38.9177 21.918 38.9242 21.9093C38.9324 21.8976 38.9424 21.888 38.9493 21.8755C38.9536 21.8677 38.9549 21.859 38.9588 21.8512C38.9666 21.8347 38.9727 21.8187 38.9783 21.8014C38.9844 21.781 38.9905 21.761 38.9939 21.7398ZM26.9111 15.1642H33.6115L31.5051 20.8183L26.9111 15.1642ZM30.724 21.2323H21.2764L26 15.4186L30.724 21.2323ZM20.4646 20.856L18.3846 15.1642H25.0894L20.4646 20.856ZM31.0278 22.0991L25.9242 35.7983L20.9184 22.0991H31.0278ZM34.3341 15.7073L37.7873 21.2327H32.2757L34.3341 15.7073ZM17.662 15.7129L19.6788 21.2323H14.2128L17.662 15.7129ZM19.9956 22.0991L24.6936 34.9565L14.3363 22.0991H19.9956ZM27.0389 35.2885L31.9528 22.0991H37.6637L27.0389 35.2885Z" fill="#F35141"/>
</g>
<defs>
<clipPath id="clip0">
<rect x="13" y="13" width="26" height="26" fill="white"/>
</clipPath>
</defs>
</svg>
