<svg width="52" height="52" viewBox="0 0 52 52" fill="none" xmlns="http://www.w3.org/2000/svg">
<rect x="0.5" y="0.5" width="51" height="51" rx="3.5" fill="white" stroke="#F35141"/>
<path d="M34.709 31.0705C34.0004 31.0705 33.3272 31.348 32.8194 31.8499C32.3115 32.3578 32.0281 33.0191 32.0281 33.7278C32.0281 34.4364 32.3056 35.0977 32.8194 35.6056C33.3331 36.1075 34.0004 36.3851 34.709 36.3851C36.1617 36.3851 37.3427 35.1922 37.3427 33.7278C37.3427 32.2633 36.1617 31.0705 34.709 31.0705ZM34.709 35.204C33.8941 35.204 33.2091 34.5309 33.2091 33.7278C33.2091 32.9247 33.8941 32.2515 34.709 32.2515C35.5121 32.2515 36.1617 32.9129 36.1617 33.7278C36.1617 34.5427 35.5121 35.204 34.709 35.204ZM35.394 22.2187C35.2877 22.1183 35.146 22.0652 34.9984 22.0652H31.969C31.6443 22.0652 31.3785 22.3309 31.3785 22.6557V27.4979C31.3785 27.8226 31.6443 28.0884 31.969 28.0884H36.7758C37.1006 28.0884 37.3663 27.8226 37.3663 27.4979V24.256C37.3663 24.0906 37.2955 23.9312 37.1715 23.819L35.394 22.2187ZM36.1853 26.9074H32.5596V23.2403H34.7681L36.1853 24.5158V26.9074ZM20.2887 31.0705C19.5801 31.0705 18.9069 31.348 18.3991 31.8499C17.8913 32.3578 17.6078 33.0191 17.6078 33.7278C17.6078 34.4364 17.8854 35.0977 18.3991 35.6056C18.9128 36.1075 19.5801 36.3851 20.2887 36.3851C21.7414 36.3851 22.9224 35.1922 22.9224 33.7278C22.9224 32.2633 21.7414 31.0705 20.2887 31.0705ZM20.2887 35.204C19.4738 35.204 18.7888 34.5309 18.7888 33.7278C18.7888 32.9247 19.4738 32.2515 20.2887 32.2515C21.0918 32.2515 21.7414 32.9129 21.7414 33.7278C21.7414 34.5427 21.0918 35.204 20.2887 35.204ZM16.35 31.7968H15.1631V30.226C15.1631 29.9012 14.8974 29.6355 14.5726 29.6355C14.2478 29.6355 13.9821 29.9012 13.9821 30.226V32.3873C13.9821 32.7121 14.2478 32.9778 14.5726 32.9778H16.35C16.6748 32.9778 16.9405 32.7121 16.9405 32.3873C16.9405 32.0625 16.6748 31.7968 16.35 31.7968ZM19.3439 28.5785C19.3439 28.2537 19.0782 27.988 18.7534 27.988H11.5905C11.2657 27.988 11 28.2537 11 28.5785C11 28.9033 11.2657 29.169 11.5905 29.169H18.7534C19.0782 29.169 19.3439 28.9092 19.3439 28.5785ZM12.7892 26.4468L19.9521 26.4881C20.2769 26.4881 20.5427 26.2283 20.5486 25.9035C20.5545 25.5728 20.2887 25.3071 19.964 25.3071L12.8011 25.2657C12.7952 25.2657 12.7952 25.2657 12.7952 25.2657C12.4704 25.2657 12.2046 25.5256 12.2046 25.8503C12.1987 26.181 12.4645 26.4468 12.7892 26.4468ZM13.9939 23.7658H21.1568C21.4816 23.7658 21.7473 23.5001 21.7473 23.1753C21.7473 22.8505 21.4816 22.5848 21.1568 22.5848H13.9939C13.6691 22.5848 13.4034 22.8505 13.4034 23.1753C13.4034 23.5001 13.6691 23.7658 13.9939 23.7658ZM39.7815 22.9686L35.5534 19.4669C35.4472 19.3783 35.3172 19.3311 35.1755 19.3311H30.2034V17.2053C30.2034 16.8805 29.9377 16.6147 29.6129 16.6147H14.5726C14.2478 16.6147 13.9821 16.8805 13.9821 17.2053V21.5278C13.9821 21.8526 14.2478 22.1183 14.5726 22.1183C14.8974 22.1183 15.1631 21.8526 15.1631 21.5278V17.7958H29.0283V31.7968H24.1861C23.8613 31.7968 23.5956 32.0625 23.5956 32.3873C23.5956 32.7121 23.8613 32.9778 24.1861 32.9778H31.3963C31.721 32.9778 31.9868 32.7121 31.9868 32.3873C31.9868 32.0625 31.721 31.7968 31.3963 31.7968H30.2093V20.5121H34.9688L38.819 23.7009L38.7776 31.785H38.1635C37.8387 31.785 37.573 32.0507 37.573 32.3755C37.573 32.7003 37.8387 32.966 38.1635 32.966H39.3622C39.687 32.966 39.9528 32.7062 39.9528 32.3814L40 23.4292C39.9941 23.2521 39.9173 23.0808 39.7815 22.9686Z" fill="#F35141"/>
</svg>
